<svg xmlns="http://www.w3.org/2000/svg" xmlns:xlink="http://www.w3.org/1999/xlink" version="1.1" width="1000" height="1000" viewBox="0 0 1000 1000" xml:space="preserve">
<desc>Created with Fabric.js 3.5.0</desc>
<defs>
</defs>
<rect x="0" y="0" width="100%" height="100%" fill="#ffffff"/>
<g transform="matrix(9.99 0 0 9.99 499.9996 499.9995)" id="930971">
<g style="" vector-effect="non-scaling-stroke">
		<g transform="matrix(1 0 0 1 -0.0054 0.1692)" id="Fill-97">
<path style="stroke: none; stroke-width: 1; stroke-dasharray: none; stroke-linecap: butt; stroke-dashoffset: 0; stroke-linejoin: miter; stroke-miterlimit: 4; is-custom-font: none; font-file-url: none; fill: rgb(16,63,121); fill-rule: evenodd; opacity: 1;" transform=" translate(-38.9947, -45.6693)" d="M 57.0685677 2.60363475 L 75.9868177 16.4399323 C 76.6735385 44.464052 64.6387885 74.6578186 38.9940515 88.7349053 C 13.3424346 74.6541886 1.32444111 44.4666389 2.00179176 16.4395568 L 20.9195353 2.60363475 C 30.5342171 11.5392423 47.4539281 11.5392423 57.0685677 2.60363475" stroke-linecap="round"/>
</g>
		<g transform="matrix(1 0 0 1 -0.0059 -0.016)" id="Fill-99">
<path style="stroke: none; stroke-width: 1; stroke-dasharray: none; stroke-linecap: butt; stroke-dashoffset: 0; stroke-linejoin: miter; stroke-miterlimit: 4; is-custom-font: none; font-file-url: none; fill: rgb(243,178,41); fill-rule: evenodd; opacity: 1;" transform=" translate(-38.9941, -45.484)" d="M 56.8440096 0 C 56.8440096 0 51.028409 7.31050023 38.9940388 7.31050023 C 26.9596687 7.31050023 21.1441103 0 21.1441103 0 L 0.0534252039 15.4251884 C 0.0534252039 15.4251884 -3.09734428 68.7260289 38.9940388 90.9680812 L 38.9940388 90.9680812 L 38.9940388 90.9680812 C 81.085422 68.7260289 77.9346947 15.4251884 77.9346947 15.4251884 L 56.8440096 0 Z M 57.1682077 4.96018845 L 74.1443505 17.3761183 C 74.3670388 44.1328721 63.2989739 72.7776359 38.9940388 86.6256162 C 14.6907077 72.7782201 3.61749339 44.1268638 3.84414923 17.3758262 L 20.8199122 4.96018845 C 25.8865356 9.073547 32.4402661 11.1294961 38.99387 11.1294961 C 50.4947759 11.1294961 57.1682077 4.96018845 57.1682077 4.96018845 L 57.1682077 4.96018845 Z" stroke-linecap="round"/>
</g>
		<g transform="matrix(1 0 0 1 0.0109 26.6471)" id="Fill-101">
<polygon style="stroke: none; stroke-width: 1; stroke-dasharray: none; stroke-linecap: butt; stroke-dashoffset: 0; stroke-linejoin: miter; stroke-miterlimit: 4; is-custom-font: none; font-file-url: none; fill: rgb(243,178,41); fill-rule: evenodd; opacity: 1;" points="0.0035,-2.0663 0.5423,-0.5279 2.1729,-0.481 0.8682,0.4958 1.3386,2.0663 -0.0014,1.1296 -1.3494,2.0556 -0.8749,0.4958 -2.1729,-0.4931 -0.5381,-0.5252 "/>
</g>
		<g transform="matrix(1 0 0 1 8.2592 27.5506)" id="Fill-103">
<polygon style="stroke: none; stroke-width: 1; stroke-dasharray: none; stroke-linecap: butt; stroke-dashoffset: 0; stroke-linejoin: miter; stroke-miterlimit: 4; is-custom-font: none; font-file-url: none; fill: rgb(243,178,41); fill-rule: evenodd; opacity: 1;" points="0.0006,-2.0633 0.5396,-0.525 2.1763,-0.4874 0.8655,0.5002 1.3441,2.0633 -0.0041,1.1313 -1.344,2.0586 -0.8763,0.4948 -2.1763,-0.4975 -0.5401,-0.525 "/>
</g>
		<g transform="matrix(1 0 0 1 -8.2374 27.5509)" id="Fill-105">
<polygon style="stroke: none; stroke-width: 1; stroke-dasharray: none; stroke-linecap: butt; stroke-dashoffset: 0; stroke-linejoin: miter; stroke-miterlimit: 4; is-custom-font: none; font-file-url: none; fill: rgb(243,178,41); fill-rule: evenodd; opacity: 1;" points="0.0087,-2.0649 0.5388,-0.5219 2.1743,-0.479 0.8756,0.4978 1.346,2.0649 -0.0021,1.1316 -1.3543,2.0543 -0.8757,0.4978 -2.1743,-0.4944 -0.5348,-0.5292 "/>
</g>
		<g transform="matrix(1 0 0 1 -3.7248 31.1807)" id="Fill-107">
<polygon style="stroke: none; stroke-width: 1; stroke-dasharray: none; stroke-linecap: butt; stroke-dashoffset: 0; stroke-linejoin: miter; stroke-miterlimit: 4; is-custom-font: none; font-file-url: none; fill: rgb(243,178,41); fill-rule: evenodd; opacity: 1;" points="0.0087,-2.0649 0.5388,-0.5219 2.1743,-0.479 0.8756,0.4978 1.346,2.0649 -0.0021,1.1316 -1.3543,2.0543 -0.8757,0.4978 -2.1743,-0.4944 -0.5348,-0.5292 "/>
</g>
		<g transform="matrix(1 0 0 1 3.7486 31.1807)" id="Fill-109">
<polygon style="stroke: none; stroke-width: 1; stroke-dasharray: none; stroke-linecap: butt; stroke-dashoffset: 0; stroke-linejoin: miter; stroke-miterlimit: 4; is-custom-font: none; font-file-url: none; fill: rgb(243,178,41); fill-rule: evenodd; opacity: 1;" points="0.0087,-2.0649 0.5388,-0.5219 2.1743,-0.479 0.8756,0.4978 1.346,2.0649 -0.0021,1.1316 -1.3543,2.0543 -0.8757,0.4978 -2.1743,-0.4944 -0.5348,-0.5292 "/>
</g>
		<g transform="matrix(1 0 0 1 0.0119 35.0615)" id="Fill-111">
<polygon style="stroke: none; stroke-width: 1; stroke-dasharray: none; stroke-linecap: butt; stroke-dashoffset: 0; stroke-linejoin: miter; stroke-miterlimit: 4; is-custom-font: none; font-file-url: none; fill: rgb(243,178,41); fill-rule: evenodd; opacity: 1;" points="0.0089,-2.0653 0.5375,-0.5216 2.1736,-0.4787 0.8744,0.4989 1.3447,2.0653 -0.0033,1.132 -1.3548,2.0552 -0.8757,0.4989 -2.1736,-0.4928 -0.536,-0.5283 "/>
</g>
		<g transform="matrix(1 0 0 1 0.0101 18.5129)" id="Fill-113">
<polygon style="stroke: none; stroke-width: 1; stroke-dasharray: none; stroke-linecap: butt; stroke-dashoffset: 0; stroke-linejoin: miter; stroke-miterlimit: 4; is-custom-font: none; font-file-url: none; fill: rgb(243,178,41); fill-rule: evenodd; opacity: 1;" points="0.0074,-2.0656 0.5361,-0.5152 2.1803,-0.4864 0.8615,0.5005 1.3298,2.0656 0.0027,1.1342 -1.346,2.0616 -0.8724,0.4985 -2.1803,-0.4978 -0.5396,-0.5219 "/>
</g>
		<g transform="matrix(1 0 0 1 -7.7859 18.9304)" id="Fill-115">
<polygon style="stroke: none; stroke-width: 1; stroke-dasharray: none; stroke-linecap: butt; stroke-dashoffset: 0; stroke-linejoin: miter; stroke-miterlimit: 4; is-custom-font: none; font-file-url: none; fill: rgb(243,178,41); fill-rule: evenodd; opacity: 1;" points="0.0074,-2.0656 0.5361,-0.5152 2.1803,-0.4864 0.8615,0.5005 1.3298,2.0656 0.0027,1.1343 -1.346,2.0616 -0.8724,0.4985 -2.1803,-0.4978 -0.5395,-0.5219 "/>
</g>
		<g transform="matrix(1 0 0 1 7.8061 18.9304)" id="Fill-117">
<polygon style="stroke: none; stroke-width: 1; stroke-dasharray: none; stroke-linecap: butt; stroke-dashoffset: 0; stroke-linejoin: miter; stroke-miterlimit: 4; is-custom-font: none; font-file-url: none; fill: rgb(243,178,41); fill-rule: evenodd; opacity: 1;" points="0.0116,-2.0656 0.5342,-0.5152 2.181,-0.4864 0.8662,0.5005 1.3264,2.0656 0.0034,1.1343 -1.3481,2.0616 -0.8723,0.4985 -2.181,-0.4978 -0.5422,-0.5219 "/>
</g>
		<g transform="matrix(1 0 0 1 -15.5818 19.3479)" id="Fill-119">
<polygon style="stroke: none; stroke-width: 1; stroke-dasharray: none; stroke-linecap: butt; stroke-dashoffset: 0; stroke-linejoin: miter; stroke-miterlimit: 4; is-custom-font: none; font-file-url: none; fill: rgb(243,178,41); fill-rule: evenodd; opacity: 1;" points="0.0041,-2.0639 0.5435,-0.521 2.1749,-0.4955 0.8736,0.5035 1.3448,2.0639 -0.0028,1.1292 -1.3413,2.0572 -0.8709,0.4934 -2.1749,-0.4955 -0.5348,-0.5169 "/>
</g>
		<g transform="matrix(1 0 0 1 15.602 19.3479)" id="Fill-121">
<polygon style="stroke: none; stroke-width: 1; stroke-dasharray: none; stroke-linecap: butt; stroke-dashoffset: 0; stroke-linejoin: miter; stroke-miterlimit: 4; is-custom-font: none; font-file-url: none; fill: rgb(243,178,41); fill-rule: evenodd; opacity: 1;" points="0.0088,-2.0646 0.5443,-0.5217 2.1783,-0.4841 0.8648,0.4975 1.3453,2.0646 0.002,1.1353 -1.3467,2.0552 -0.8709,0.5008 -2.1783,-0.4962 -0.53,-0.5217 "/>
</g>
		<g transform="matrix(1 0 0 1 -12.3118 23.9188)" id="Fill-123">
<polygon style="stroke: none; stroke-width: 1; stroke-dasharray: none; stroke-linecap: butt; stroke-dashoffset: 0; stroke-linejoin: miter; stroke-miterlimit: 4; is-custom-font: none; font-file-url: none; fill: rgb(243,178,41); fill-rule: evenodd; opacity: 1;" points="-0.0007,-2.0653 0.5388,-0.5282 2.1804,-0.4914 0.871,0.5035 1.3419,2.0653 -0.0007,1.1313 -1.3473,2.0531 -0.8771,0.5008 -2.1804,-0.4968 -0.5374,-0.5215 "/>
</g>
		<g transform="matrix(1 0 0 1 12.341 23.9191)" id="Fill-125">
<polygon style="stroke: none; stroke-width: 1; stroke-dasharray: none; stroke-linecap: butt; stroke-dashoffset: 0; stroke-linejoin: miter; stroke-miterlimit: 4; is-custom-font: none; font-file-url: none; fill: rgb(243,178,41); fill-rule: evenodd; opacity: 1;" points="0.0027,-2.0649 0.5375,-0.5219 2.1749,-0.479 0.8662,0.499 1.34,2.0649 -0.0081,1.1309 -1.3582,2.0548 -0.8763,0.499 -2.1749,-0.4932 -0.5394,-0.5286 "/>
</g>
		<g transform="matrix(1 0 0 1 4.1234 22.8718)" id="Fill-127">
<polygon style="stroke: none; stroke-width: 1; stroke-dasharray: none; stroke-linecap: butt; stroke-dashoffset: 0; stroke-linejoin: miter; stroke-miterlimit: 4; is-custom-font: none; font-file-url: none; fill: rgb(243,178,41); fill-rule: evenodd; opacity: 1;" points="0.0064,-2.0649 0.5378,-0.5212 2.1746,-0.479 0.8753,0.4992 1.3463,2.0649 -0.0044,1.1317 -1.3552,2.0549 -0.8773,0.4992 -2.1746,-0.493 -0.5357,-0.5285 "/>
</g>
		<g transform="matrix(1 0 0 1 -4.0942 22.8725)" id="Fill-129">
<polygon style="stroke: none; stroke-width: 1; stroke-dasharray: none; stroke-linecap: butt; stroke-dashoffset: 0; stroke-linejoin: miter; stroke-miterlimit: 4; is-custom-font: none; font-file-url: none; fill: rgb(243,178,41); fill-rule: evenodd; opacity: 1;" points="0.0106,-2.0669 0.5398,-0.524 2.1753,-0.4884 0.8665,0.5105 1.3411,2.0669 0.0051,1.1303 -1.3458,2.0615 -0.8699,0.5018 -2.1753,-0.4911 -0.5344,-0.524 "/>
</g>
		<g transform="matrix(1 0 0 1 -11.2505 14.8191)" id="Fill-131">
<polygon style="stroke: none; stroke-width: 1; stroke-dasharray: none; stroke-linecap: butt; stroke-dashoffset: 0; stroke-linejoin: miter; stroke-miterlimit: 4; is-custom-font: none; font-file-url: none; fill: rgb(243,178,41); fill-rule: evenodd; opacity: 1;" points="-0.0028,-2.0642 0.5435,-0.528 2.1797,-0.4952 0.8722,0.5025 1.3452,2.0642 -0.0028,1.1363 -1.344,2.0536 -0.8723,0.4964 -2.1797,-0.4998 -0.5389,-0.5266 "/>
</g>
		<g transform="matrix(1 0 0 1 11.2763 14.8188)" id="Fill-133">
<polygon style="stroke: none; stroke-width: 1; stroke-dasharray: none; stroke-linecap: butt; stroke-dashoffset: 0; stroke-linejoin: miter; stroke-miterlimit: 4; is-custom-font: none; font-file-url: none; fill: rgb(243,178,41); fill-rule: evenodd; opacity: 1;" points="0.0065,-2.0626 0.5384,-0.523 2.1753,-0.4801 0.8686,0.5015 1.3429,2.0626 -0.0085,1.132 -1.3552,2.0552 -0.874,0.5015 -2.1753,-0.4908 -0.5392,-0.5316 "/>
</g>
		<g transform="matrix(1 0 0 1 -18.7595 15.2367)" id="Fill-135">
<polygon style="stroke: none; stroke-width: 1; stroke-dasharray: none; stroke-linecap: butt; stroke-dashoffset: 0; stroke-linejoin: miter; stroke-miterlimit: 4; is-custom-font: none; font-file-url: none; fill: rgb(243,178,41); fill-rule: evenodd; opacity: 1;" points="0.0007,-2.0656 0.5435,-0.5193 2.1757,-0.4764 0.8743,0.5085 1.3433,2.0656 -0.0021,1.1369 -1.3549,2.0649 -0.871,0.4991 -2.1757,-0.4912 -0.5402,-0.5193 "/>
</g>
		<g transform="matrix(1 0 0 1 18.7853 15.2369)" id="Fill-137">
<polygon style="stroke: none; stroke-width: 1; stroke-dasharray: none; stroke-linecap: butt; stroke-dashoffset: 0; stroke-linejoin: miter; stroke-miterlimit: 4; is-custom-font: none; font-file-url: none; fill: rgb(243,178,41); fill-rule: evenodd; opacity: 1;" points="0.0115,-2.0598 0.5388,-0.5276 2.1736,-0.4867 0.8675,0.5055 1.3414,2.0598 0.0047,1.1293 -1.3433,2.0565 -0.8696,0.5001 -2.1736,-0.4995 -0.5416,-0.5276 "/>
</g>
		<g transform="matrix(1 0 0 1 -3.7416 13.9841)" id="Fill-139">
<polygon style="stroke: none; stroke-width: 1; stroke-dasharray: none; stroke-linecap: butt; stroke-dashoffset: 0; stroke-linejoin: miter; stroke-miterlimit: 4; is-custom-font: none; font-file-url: none; fill: rgb(243,178,41); fill-rule: evenodd; opacity: 1;" points="0.0147,-2.0696 0.5406,-0.5178 2.1772,-0.4796 0.8679,0.5126 1.3416,2.0696 0.0011,1.1289 -1.3404,2.0657 -0.8732,0.5045 -2.1772,-0.4937 -0.5365,-0.5205 "/>
</g>
		<g transform="matrix(1 0 0 1 3.7673 13.9839)" id="Fill-141">
<polygon style="stroke: none; stroke-width: 1; stroke-dasharray: none; stroke-linecap: butt; stroke-dashoffset: 0; stroke-linejoin: miter; stroke-miterlimit: 4; is-custom-font: none; font-file-url: none; fill: rgb(243,178,41); fill-rule: evenodd; opacity: 1;" points="0.0125,-2.0653 0.5411,-0.5183 2.1738,-0.4827 0.8692,0.5082 1.3485,2.0653 -0.0023,1.1286 -1.3491,2.0653 -0.8753,0.5008 -2.1738,-0.4882 -0.5406,-0.523 "/>
</g>
		<g transform="matrix(1 0 0 1 21.9166 10.2274)" id="Fill-143">
<polygon style="stroke: none; stroke-width: 1; stroke-dasharray: none; stroke-linecap: butt; stroke-dashoffset: 0; stroke-linejoin: miter; stroke-miterlimit: 4; is-custom-font: none; font-file-url: none; fill: rgb(243,178,41); fill-rule: evenodd; opacity: 1;" points="-0.0051,-2.0679 0.5338,-0.5249 2.1793,-0.4853 0.8679,0.5062 1.3328,2.0679 -0.0051,1.1326 -1.3491,2.0639 -0.8848,0.5002 -2.1793,-0.5001 -0.5445,-0.5249 "/>
</g>
		<g transform="matrix(1 0 0 1 -21.8926 10.2274)" id="Fill-145">
<polygon style="stroke: none; stroke-width: 1; stroke-dasharray: none; stroke-linecap: butt; stroke-dashoffset: 0; stroke-linejoin: miter; stroke-miterlimit: 4; is-custom-font: none; font-file-url: none; fill: rgb(243,178,41); fill-rule: evenodd; opacity: 1;" points="-0.004,-2.0679 0.5341,-0.5249 2.1797,-0.4853 0.8689,0.5062 1.3325,2.0679 -0.004,1.1326 -1.3481,2.0639 -0.8844,0.5002 -2.1797,-0.5001 -0.5448,-0.5249 "/>
</g>
		<g transform="matrix(1 0 0 1 14.6151 10.2271)" id="Fill-147">
<polygon style="stroke: none; stroke-width: 1; stroke-dasharray: none; stroke-linecap: butt; stroke-dashoffset: 0; stroke-linejoin: miter; stroke-miterlimit: 4; is-custom-font: none; font-file-url: none; fill: rgb(243,178,41); fill-rule: evenodd; opacity: 1;" points="0.0102,-2.0649 0.5362,-0.5172 2.1729,-0.4824 0.8675,0.5078 1.346,2.0649 -0.0047,1.1283 -1.3494,2.0649 -0.8783,0.5011 -2.1729,-0.4878 -0.5367,-0.5226 "/>
</g>
		<g transform="matrix(1 0 0 1 -14.591 10.2271)" id="Fill-149">
<polygon style="stroke: none; stroke-width: 1; stroke-dasharray: none; stroke-linecap: butt; stroke-dashoffset: 0; stroke-linejoin: miter; stroke-miterlimit: 4; is-custom-font: none; font-file-url: none; fill: rgb(243,178,41); fill-rule: evenodd; opacity: 1;" points="-0.0071,-2.069 0.5344,-0.5172 2.1794,-0.4838 0.8733,0.5045 1.3321,2.069 -0.0071,1.1283 -1.3572,2.0609 -0.8772,0.5045 -2.1794,-0.4931 -0.5425,-0.5226 "/>
</g>
		<g transform="matrix(1 0 0 1 -7.2895 9.8096)" id="Fill-151">
<polygon style="stroke: none; stroke-width: 1; stroke-dasharray: none; stroke-linecap: butt; stroke-dashoffset: 0; stroke-linejoin: miter; stroke-miterlimit: 4; is-custom-font: none; font-file-url: none; fill: rgb(243,178,41); fill-rule: evenodd; opacity: 1;" points="-0.0071,-2.069 0.5345,-0.5173 2.1794,-0.4838 0.8733,0.5045 1.3322,2.069 -0.0071,1.1283 -1.3572,2.0609 -0.8772,0.5045 -2.1794,-0.4931 -0.5425,-0.5226 "/>
</g>
		<g transform="matrix(1 0 0 1 7.3135 9.81)" id="Fill-153">
<polygon style="stroke: none; stroke-width: 1; stroke-dasharray: none; stroke-linecap: butt; stroke-dashoffset: 0; stroke-linejoin: miter; stroke-miterlimit: 4; is-custom-font: none; font-file-url: none; fill: rgb(243,178,41); fill-rule: evenodd; opacity: 1;" points="0.0034,-2.0646 0.5414,-0.5163 2.1709,-0.4794 0.8674,0.5089 1.3385,2.0646 -0.0048,1.1333 -1.3481,2.0633 -0.877,0.5089 -2.1709,-0.4908 -0.5381,-0.525 "/>
</g>
		<g transform="matrix(1 0 0 1 0.012 9.3921)" id="Fill-155">
<polygon style="stroke: none; stroke-width: 1; stroke-dasharray: none; stroke-linecap: butt; stroke-dashoffset: 0; stroke-linejoin: miter; stroke-miterlimit: 4; is-custom-font: none; font-file-url: none; fill: rgb(243,178,41); fill-rule: evenodd; opacity: 1;" points="0.0103,-2.0649 0.5369,-0.5172 2.1729,-0.4824 0.8683,0.5078 1.3447,2.0649 -0.0047,1.1282 -1.3494,2.0649 -0.879,0.5011 -2.1729,-0.4878 -0.536,-0.5226 "/>
</g>
		<g transform="matrix(1 0 0 1 17.0679 4.6824)" id="Fill-157">
<polygon style="stroke: none; stroke-width: 1; stroke-dasharray: none; stroke-linecap: butt; stroke-dashoffset: 0; stroke-linejoin: miter; stroke-miterlimit: 4; is-custom-font: none; font-file-url: none; fill: rgb(243,178,41); fill-rule: evenodd; opacity: 1;" points="-0.0051,-2.0679 0.5338,-0.525 2.1794,-0.4855 0.8679,0.5061 1.3329,2.0679 -0.0051,1.1325 -1.349,2.0638 -0.8848,0.5001 -2.1794,-0.5003 -0.5445,-0.525 "/>
</g>
		<g transform="matrix(1 0 0 1 23.8902 4.6824)" id="Fill-159">
<polygon style="stroke: none; stroke-width: 1; stroke-dasharray: none; stroke-linecap: butt; stroke-dashoffset: 0; stroke-linejoin: miter; stroke-miterlimit: 4; is-custom-font: none; font-file-url: none; fill: rgb(243,178,41); fill-rule: evenodd; opacity: 1;" points="-0.0051,-2.0679 0.5338,-0.525 2.1794,-0.4855 0.8679,0.5061 1.3328,2.0679 -0.0051,1.1325 -1.3491,2.0638 -0.8848,0.5001 -2.1794,-0.5003 -0.5445,-0.525 "/>
</g>
		<g transform="matrix(1 0 0 1 -23.8661 4.6824)" id="Fill-161">
<polygon style="stroke: none; stroke-width: 1; stroke-dasharray: none; stroke-linecap: butt; stroke-dashoffset: 0; stroke-linejoin: miter; stroke-miterlimit: 4; is-custom-font: none; font-file-url: none; fill: rgb(243,178,41); fill-rule: evenodd; opacity: 1;" points="-0.004,-2.0679 0.5341,-0.525 2.1797,-0.4855 0.869,0.5061 1.3325,2.0679 -0.004,1.1325 -1.348,2.0638 -0.8844,0.5001 -2.1797,-0.5003 -0.5448,-0.525 "/>
</g>
		<g transform="matrix(1 0 0 1 10.2455 4.6824)" id="Fill-163">
<polygon style="stroke: none; stroke-width: 1; stroke-dasharray: none; stroke-linecap: butt; stroke-dashoffset: 0; stroke-linejoin: miter; stroke-miterlimit: 4; is-custom-font: none; font-file-url: none; fill: rgb(243,178,41); fill-rule: evenodd; opacity: 1;" points="0.0102,-2.0649 0.5362,-0.5173 2.1729,-0.4825 0.8675,0.5078 1.346,2.0649 -0.0047,1.1283 -1.3494,2.0649 -0.8783,0.5011 -2.1729,-0.4879 -0.5367,-0.5227 "/>
</g>
		<g transform="matrix(1 0 0 1 -17.0437 4.6823)" id="Fill-165">
<polygon style="stroke: none; stroke-width: 1; stroke-dasharray: none; stroke-linecap: butt; stroke-dashoffset: 0; stroke-linejoin: miter; stroke-miterlimit: 4; is-custom-font: none; font-file-url: none; fill: rgb(243,178,41); fill-rule: evenodd; opacity: 1;" points="-0.0071,-2.0689 0.5344,-0.5173 2.1794,-0.4838 0.8733,0.5045 1.3321,2.0689 -0.0071,1.1283 -1.3572,2.0609 -0.8772,0.5045 -2.1794,-0.4932 -0.5425,-0.5227 "/>
</g>
		<g transform="matrix(1 0 0 1 -10.2214 4.6823)" id="Fill-167">
<polygon style="stroke: none; stroke-width: 1; stroke-dasharray: none; stroke-linecap: butt; stroke-dashoffset: 0; stroke-linejoin: miter; stroke-miterlimit: 4; is-custom-font: none; font-file-url: none; fill: rgb(243,178,41); fill-rule: evenodd; opacity: 1;" points="-0.0023,-2.0669 0.5229,-0.52 2.1733,-0.4771 0.8597,0.5092 1.3315,2.0669 -0.0079,1.1336 -1.3504,2.0669 -0.8808,0.5018 -2.1733,-0.4918 -0.5467,-0.52 "/>
</g>
		<g transform="matrix(1 0 0 1 3.4232 4.6823)" id="Fill-169">
<polygon style="stroke: none; stroke-width: 1; stroke-dasharray: none; stroke-linecap: butt; stroke-dashoffset: 0; stroke-linejoin: miter; stroke-miterlimit: 4; is-custom-font: none; font-file-url: none; fill: rgb(243,178,41); fill-rule: evenodd; opacity: 1;" points="0.0034,-2.0645 0.5414,-0.5163 2.1709,-0.4794 0.8674,0.5089 1.3385,2.0645 -0.0048,1.1333 -1.3481,2.0633 -0.877,0.5089 -2.1709,-0.4909 -0.5381,-0.5251 "/>
</g>
		<g transform="matrix(1 0 0 1 -3.3992 4.6824)" id="Fill-171">
<polygon style="stroke: none; stroke-width: 1; stroke-dasharray: none; stroke-linecap: butt; stroke-dashoffset: 0; stroke-linejoin: miter; stroke-miterlimit: 4; is-custom-font: none; font-file-url: none; fill: rgb(243,178,41); fill-rule: evenodd; opacity: 1;" points="0.0103,-2.0649 0.5369,-0.5173 2.1729,-0.4825 0.8683,0.5078 1.3447,2.0649 -0.0046,1.1283 -1.3494,2.0649 -0.879,0.5011 -2.1729,-0.4879 -0.536,-0.5227 "/>
</g>
		<g transform="matrix(1 0 0 1 -22.2375 -7.0106)" id="Fill-173">
<polygon style="stroke: none; stroke-width: 1; stroke-dasharray: none; stroke-linecap: butt; stroke-dashoffset: 0; stroke-linejoin: miter; stroke-miterlimit: 4; is-custom-font: none; font-file-url: none; fill: rgb(243,178,41); fill-rule: evenodd; opacity: 1;" points="5.8878,-1.8205 1.6216,-1.8276 1.6216,-3.7948 1.1556,-4.2975 -1.1121,-4.3054 -1.6334,-3.8093 -1.6334,3.7047 -1.1338,4.1857 1.1314,4.1938 1.6216,3.7151 1.6216,1.8548 5.8878,1.8666 5.8878,5.2236 3.387,7.7732 -3.4216,7.7732 -5.8878,5.1981 -5.8878,-5.3042 -3.3812,-7.7732 3.4233,-7.7732 5.8878,-5.3042 "/>
</g>
		<g transform="matrix(1 0 0 1 -6.8015 -7.0106)" id="Fill-175">
<path style="stroke: none; stroke-width: 1; stroke-dasharray: none; stroke-linecap: butt; stroke-dashoffset: 0; stroke-linejoin: miter; stroke-miterlimit: 4; is-custom-font: none; font-file-url: none; fill: rgb(243,178,41); fill-rule: evenodd; opacity: 1;" transform=" translate(-32.1985, -38.4895)" d="M 31.2217145 39.0629996 L 33.1858541 39.0629996 L 32.2078151 36.617891 L 31.2217145 39.0629996 Z M 36.4025522 30.7162426 L 36.4025522 34.2335324 L 35.6108184 34.2302779 L 39.0009905 42.6863935 L 39.9114125 42.6863935 L 39.9114125 46.262681 L 33.9710035 46.262681 L 33.9710035 42.6863935 L 34.4842502 42.6863935 L 34.2656138 42.0051243 L 30.1628898 42.0051243 L 29.915932 42.6863935 L 30.4073996 42.6863935 L 30.4073996 46.262681 L 24.4856041 46.262681 L 24.4928638 42.6863935 L 25.4178054 42.6863935 L 28.8378184 34.2207232 L 28.1712307 34.2191376 L 28.1712307 30.7162426 L 36.4025522 30.7162426 Z" stroke-linecap="round"/>
</g>
		<g transform="matrix(1 0 0 1 8.886 -7.0106)" id="Fill-177">
<path style="stroke: none; stroke-width: 1; stroke-dasharray: none; stroke-linecap: butt; stroke-dashoffset: 0; stroke-linejoin: miter; stroke-miterlimit: 4; is-custom-font: none; font-file-url: none; fill: rgb(243,178,41); fill-rule: evenodd; opacity: 1;" transform=" translate(-47.886, -38.4895)" d="M 49.6743914 34.7559959 L 49.1700505 34.2622343 L 47.040372 34.2574361 L 47.040372 36.5006424 L 49.1611447 36.5006424 L 49.6743914 36.0012481 L 49.6743914 34.7559959 Z M 49.6743914 40.4670074 L 49.1546869 39.9652765 L 47.040372 39.9644838 L 47.040372 42.7445525 L 49.1546869 42.7477653 L 49.6743914 42.2707768 L 49.6743914 40.4670074 Z M 53.9207064 39.253674 L 53.9207064 43.7856493 L 51.4319661 46.2626768 L 41.8512616 46.2626768 L 41.8512616 42.731034 L 42.8004726 42.731034 L 42.8004726 34.2470468 L 41.8852388 34.2470468 L 41.8835927 30.7162385 L 51.4634531 30.7162385 L 53.9207064 33.2737933 L 53.9207064 37.2154159 L 52.8925668 38.2357758 L 53.9207064 39.253674 Z" stroke-linecap="round"/>
</g>
		<g transform="matrix(1 0 0 1 22.6011 -7.0106)" id="Fill-179">
<polygon style="stroke: none; stroke-width: 1; stroke-dasharray: none; stroke-linecap: butt; stroke-dashoffset: 0; stroke-linejoin: miter; stroke-miterlimit: 4; is-custom-font: none; font-file-url: none; fill: rgb(243,178,41); fill-rule: evenodd; opacity: 1;" points="4.8414,-4.181 4.8414,5.3193 2.3431,7.7732 -3.322,7.7732 -5.7817,5.2962 -5.7817,1.5468 -1.529,1.558 -1.5313,3.806 -1.0253,4.2831 0.0682,4.2879 0.5895,3.8084 0.5895,-4.2026 -0.7316,-4.2026 -0.7316,-7.7732 5.7817,-7.7732 5.7817,-4.185 "/>
</g>
		<g transform="matrix(1 0 0 1 -6.0812 -24.0977)" id="Fill-181">
<polygon style="stroke: none; stroke-width: 1; stroke-dasharray: none; stroke-linecap: butt; stroke-dashoffset: 0; stroke-linejoin: miter; stroke-miterlimit: 4; is-custom-font: none; font-file-url: none; fill: rgb(243,178,41); fill-rule: evenodd; opacity: 1;" points="-0.0023,-2.0689 0.5379,-0.5213 2.178,-0.4858 0.8698,0.5038 1.3355,2.0689 -0.0077,1.1269 -1.347,2.0541 -0.8692,0.4951 -2.178,-0.4972 -0.5345,-0.5301 "/>
</g>
		<g transform="matrix(1 0 0 1 -12.1371 -24.5153)" id="Fill-183">
<polygon style="stroke: none; stroke-width: 1; stroke-dasharray: none; stroke-linecap: butt; stroke-dashoffset: 0; stroke-linejoin: miter; stroke-miterlimit: 4; is-custom-font: none; font-file-url: none; fill: rgb(243,178,41); fill-rule: evenodd; opacity: 1;" points="0.0055,-2.0676 0.5395,-0.5253 2.1777,-0.4777 0.8602,0.5005 1.3413,2.0676 -0.017,1.131 -1.3528,2.0556 -0.8818,0.4958 -2.1777,-0.4971 -0.5381,-0.5253 "/>
</g>
		<g transform="matrix(1 0 0 1 -24.249 -24.5145)" id="Fill-185">
<polygon style="stroke: none; stroke-width: 1; stroke-dasharray: none; stroke-linecap: butt; stroke-dashoffset: 0; stroke-linejoin: miter; stroke-miterlimit: 4; is-custom-font: none; font-file-url: none; fill: rgb(243,178,41); fill-rule: evenodd; opacity: 1;" points="0.0014,-2.0696 0.5361,-0.5313 2.1797,-0.4871 0.8757,0.4985 1.3325,2.0696 -0.0021,1.1243 -1.3461,2.0562 -0.8743,0.4951 -2.1797,-0.4992 -0.5435,-0.5313 "/>
</g>
		<g transform="matrix(1 0 0 1 -30.305 -24.5145)" id="Fill-187">
<polygon style="stroke: none; stroke-width: 1; stroke-dasharray: none; stroke-linecap: butt; stroke-dashoffset: 0; stroke-linejoin: miter; stroke-miterlimit: 4; is-custom-font: none; font-file-url: none; fill: rgb(243,178,41); fill-rule: evenodd; opacity: 1;" points="0.0014,-2.0696 0.5361,-0.5313 2.1797,-0.4871 0.8757,0.4985 1.3325,2.0696 -0.0021,1.1243 -1.3461,2.0562 -0.8743,0.4951 -2.1797,-0.4992 -0.5435,-0.5313 "/>
</g>
		<g transform="matrix(1 0 0 1 -18.1931 -24.5152)" id="Fill-189">
<polygon style="stroke: none; stroke-width: 1; stroke-dasharray: none; stroke-linecap: butt; stroke-dashoffset: 0; stroke-linejoin: miter; stroke-miterlimit: 4; is-custom-font: none; font-file-url: none; fill: rgb(243,178,41); fill-rule: evenodd; opacity: 1;" points="0.0014,-2.0636 0.549,-0.5253 2.177,-0.4817 0.8729,0.5072 1.3379,2.0636 -0.0034,1.1309 -1.3507,2.0629 -0.8696,0.5038 -2.177,-0.4905 -0.5354,-0.5253 "/>
</g>
		<g transform="matrix(1 0 0 1 -0.0252 -24.0977)" id="Fill-191">
<polygon style="stroke: none; stroke-width: 1; stroke-dasharray: none; stroke-linecap: butt; stroke-dashoffset: 0; stroke-linejoin: miter; stroke-miterlimit: 4; is-custom-font: none; font-file-url: none; fill: rgb(243,178,41); fill-rule: evenodd; opacity: 1;" points="-0.0023,-2.0689 0.5379,-0.5213 2.178,-0.4858 0.8698,0.5038 1.3355,2.0689 -0.0077,1.1269 -1.347,2.0541 -0.8692,0.4951 -2.178,-0.4972 -0.5345,-0.5301 "/>
</g>
		<g transform="matrix(1 0 0 1 6.0307 -24.0977)" id="Fill-193">
<polygon style="stroke: none; stroke-width: 1; stroke-dasharray: none; stroke-linecap: butt; stroke-dashoffset: 0; stroke-linejoin: miter; stroke-miterlimit: 4; is-custom-font: none; font-file-url: none; fill: rgb(243,178,41); fill-rule: evenodd; opacity: 1;" points="-0.0023,-2.0689 0.5379,-0.5213 2.178,-0.4858 0.8698,0.5038 1.3355,2.0689 -0.0077,1.1269 -1.347,2.0541 -0.8692,0.4951 -2.178,-0.4972 -0.5345,-0.5301 "/>
</g>
		<g transform="matrix(1 0 0 1 12.0867 -24.1073)" id="Fill-195">
<polygon style="stroke: none; stroke-width: 1; stroke-dasharray: none; stroke-linecap: butt; stroke-dashoffset: 0; stroke-linejoin: miter; stroke-miterlimit: 4; is-custom-font: none; font-file-url: none; fill: rgb(243,178,41); fill-rule: evenodd; opacity: 1;" points="0.0023,-2.0689 -0.5378,-0.5212 -2.178,-0.4858 -0.8699,0.5038 -1.3355,2.0689 0.0078,1.1269 1.347,2.0542 0.8691,0.4951 2.178,-0.4972 0.5345,-0.53 "/>
</g>
		<g transform="matrix(1 0 0 1 18.1427 -24.5248)" id="Fill-197">
<polygon style="stroke: none; stroke-width: 1; stroke-dasharray: none; stroke-linecap: butt; stroke-dashoffset: 0; stroke-linejoin: miter; stroke-miterlimit: 4; is-custom-font: none; font-file-url: none; fill: rgb(243,178,41); fill-rule: evenodd; opacity: 1;" points="-0.0055,-2.0676 -0.5396,-0.5252 -2.1777,-0.4777 -0.8601,0.5005 -1.3413,2.0676 0.0169,1.131 1.3528,2.0556 0.8817,0.4958 2.1777,-0.4971 0.5382,-0.5252 "/>
</g>
		<g transform="matrix(1 0 0 1 30.2546 -24.5241)" id="Fill-199">
<polygon style="stroke: none; stroke-width: 1; stroke-dasharray: none; stroke-linecap: butt; stroke-dashoffset: 0; stroke-linejoin: miter; stroke-miterlimit: 4; is-custom-font: none; font-file-url: none; fill: rgb(243,178,41); fill-rule: evenodd; opacity: 1;" points="-0.0014,-2.0696 -0.5361,-0.5313 -2.1797,-0.4871 -0.8757,0.4985 -1.3325,2.0696 0.0021,1.1243 1.3461,2.0562 0.8743,0.4952 2.1797,-0.4992 0.5435,-0.5313 "/>
</g>
		<g transform="matrix(1 0 0 1 24.1987 -24.5247)" id="Fill-201">
<polygon style="stroke: none; stroke-width: 1; stroke-dasharray: none; stroke-linecap: butt; stroke-dashoffset: 0; stroke-linejoin: miter; stroke-miterlimit: 4; is-custom-font: none; font-file-url: none; fill: rgb(243,178,41); fill-rule: evenodd; opacity: 1;" points="-0.0015,-2.0636 -0.549,-0.5252 -2.177,-0.4817 -0.873,0.5072 -1.338,2.0636 0.0034,1.1309 1.3507,2.063 0.8695,0.5038 2.177,-0.4904 0.5354,-0.5252 "/>
</g>
		<g transform="matrix(1 0 0 1 -17.9785 -34.7015)" id="Fill-203">
<polygon style="stroke: none; stroke-width: 1; stroke-dasharray: none; stroke-linecap: butt; stroke-dashoffset: 0; stroke-linejoin: miter; stroke-miterlimit: 4; is-custom-font: none; font-file-url: none; fill: rgb(243,178,41); fill-rule: evenodd; opacity: 1;" points="-0.0041,-2.0683 0.5341,-0.5246 2.1791,-0.4858 0.8695,0.5072 1.3331,2.0683 -0.0041,1.1329 -1.3481,2.0635 -0.8859,0.5004 -2.1791,-0.4992 -0.5443,-0.5246 "/>
</g>
		<g transform="matrix(1 0 0 1 18.0023 -34.7111)" id="Fill-205">
<polygon style="stroke: none; stroke-width: 1; stroke-dasharray: none; stroke-linecap: butt; stroke-dashoffset: 0; stroke-linejoin: miter; stroke-miterlimit: 4; is-custom-font: none; font-file-url: none; fill: rgb(243,178,41); fill-rule: evenodd; opacity: 1;" points="0.0041,-2.0682 -0.5341,-0.5246 -2.1791,-0.4857 -0.8695,0.5071 -1.3331,2.0682 0.0041,1.1329 1.3481,2.0635 0.8859,0.5005 2.1791,-0.4992 0.5443,-0.5246 "/>
</g>
		<g transform="matrix(1 0 0 1 -25.0258 -29.9294)" id="Fill-207">
<polygon style="stroke: none; stroke-width: 1; stroke-dasharray: none; stroke-linecap: butt; stroke-dashoffset: 0; stroke-linejoin: miter; stroke-miterlimit: 4; is-custom-font: none; font-file-url: none; fill: rgb(243,178,41); fill-rule: evenodd; opacity: 1;" points="0.0041,-2.0676 0.5389,-0.5253 2.1777,-0.4777 0.8648,0.5012 1.3399,2.0676 -0.0156,1.131 -1.3542,2.0562 -0.881,0.4971 -2.1777,-0.4971 -0.5375,-0.5253 "/>
</g>
		<g transform="matrix(1 0 0 1 -6.2476 -29.0841)" id="Fill-209">
<polygon style="stroke: none; stroke-width: 1; stroke-dasharray: none; stroke-linecap: butt; stroke-dashoffset: 0; stroke-linejoin: miter; stroke-miterlimit: 4; is-custom-font: none; font-file-url: none; fill: rgb(243,178,41); fill-rule: evenodd; opacity: 1;" points="-0.0006,-2.0636 0.5375,-0.5293 2.173,-0.4844 0.8709,0.5092 1.3427,2.0636 -0.013,1.1283 -1.3487,2.0595 -0.8709,0.4918 -2.173,-0.4978 -0.5361,-0.5313 "/>
</g>
		<g transform="matrix(1 0 0 1 0.0118 -29.0841)" id="Fill-211">
<polygon style="stroke: none; stroke-width: 1; stroke-dasharray: none; stroke-linecap: butt; stroke-dashoffset: 0; stroke-linejoin: miter; stroke-miterlimit: 4; is-custom-font: none; font-file-url: none; fill: rgb(243,178,41); fill-rule: evenodd; opacity: 1;" points="-0.0005,-2.0636 0.5375,-0.5293 2.173,-0.4844 0.871,0.5092 1.3428,2.0636 -0.0129,1.1283 -1.3487,2.0595 -0.8708,0.4918 -2.173,-0.4978 -0.5361,-0.5313 "/>
</g>
		<g transform="matrix(1 0 0 1 6.2713 -29.0841)" id="Fill-213">
<polygon style="stroke: none; stroke-width: 1; stroke-dasharray: none; stroke-linecap: butt; stroke-dashoffset: 0; stroke-linejoin: miter; stroke-miterlimit: 4; is-custom-font: none; font-file-url: none; fill: rgb(243,178,41); fill-rule: evenodd; opacity: 1;" points="-0.0007,-2.0636 0.5375,-0.5293 2.173,-0.4844 0.8709,0.5092 1.3427,2.0636 -0.0129,1.1283 -1.3488,2.0595 -0.8709,0.4918 -2.173,-0.4978 -0.5361,-0.5313 "/>
</g>
		<g transform="matrix(1 0 0 1 -18.7665 -29.5016)" id="Fill-215">
<polygon style="stroke: none; stroke-width: 1; stroke-dasharray: none; stroke-linecap: butt; stroke-dashoffset: 0; stroke-linejoin: miter; stroke-miterlimit: 4; is-custom-font: none; font-file-url: none; fill: rgb(243,178,41); fill-rule: evenodd; opacity: 1;" points="0.0024,-2.0636 0.5486,-0.526 2.1773,-0.4831 0.8734,0.5065 1.3382,2.0636 -0.0037,1.1303 -1.351,2.0629 -0.8699,0.5038 -2.1773,-0.4911 -0.535,-0.526 "/>
</g>
		<g transform="matrix(1 0 0 1 -12.507 -29.5016)" id="Fill-217">
<polygon style="stroke: none; stroke-width: 1; stroke-dasharray: none; stroke-linecap: butt; stroke-dashoffset: 0; stroke-linejoin: miter; stroke-miterlimit: 4; is-custom-font: none; font-file-url: none; fill: rgb(243,178,41); fill-rule: evenodd; opacity: 1;" points="0.0024,-2.0636 0.5486,-0.526 2.1773,-0.4831 0.8734,0.5065 1.3382,2.0636 -0.0037,1.1303 -1.351,2.0629 -0.8699,0.5038 -2.1773,-0.4911 -0.535,-0.526 "/>
</g>
		<g transform="matrix(1 0 0 1 25.0495 -29.9294)" id="Fill-219">
<polygon style="stroke: none; stroke-width: 1; stroke-dasharray: none; stroke-linecap: butt; stroke-dashoffset: 0; stroke-linejoin: miter; stroke-miterlimit: 4; is-custom-font: none; font-file-url: none; fill: rgb(243,178,41); fill-rule: evenodd; opacity: 1;" points="-0.0041,-2.0676 -0.5388,-0.5253 -2.1777,-0.4777 -0.8648,0.5012 -1.3399,2.0676 0.0156,1.131 1.3542,2.0562 0.8811,0.4971 2.1777,-0.4971 0.5375,-0.5253 "/>
</g>
		<g transform="matrix(1 0 0 1 12.5307 -29.5016)" id="Fill-221">
<polygon style="stroke: none; stroke-width: 1; stroke-dasharray: none; stroke-linecap: butt; stroke-dashoffset: 0; stroke-linejoin: miter; stroke-miterlimit: 4; is-custom-font: none; font-file-url: none; fill: rgb(243,178,41); fill-rule: evenodd; opacity: 1;" points="0.0007,-2.0636 -0.5375,-0.5293 -2.173,-0.4844 -0.8709,0.5092 -1.3427,2.0636 0.0129,1.1282 1.3487,2.0595 0.8709,0.4918 2.173,-0.4978 0.5361,-0.5313 "/>
</g>
		<g transform="matrix(1 0 0 1 18.7901 -29.5016)" id="Fill-223">
<polygon style="stroke: none; stroke-width: 1; stroke-dasharray: none; stroke-linecap: butt; stroke-dashoffset: 0; stroke-linejoin: miter; stroke-miterlimit: 4; is-custom-font: none; font-file-url: none; fill: rgb(243,178,41); fill-rule: evenodd; opacity: 1;" points="-0.0023,-2.0636 -0.5486,-0.526 -2.1773,-0.4831 -0.8734,0.5065 -1.3382,2.0636 0.0038,1.1303 1.351,2.0629 0.8699,0.5038 2.1773,-0.4911 0.5351,-0.526 "/>
</g>
		<g transform="matrix(1 0 0 1 -9.6598 -19.1089)" id="Fill-231">
<polygon style="stroke: none; stroke-width: 1; stroke-dasharray: none; stroke-linecap: butt; stroke-dashoffset: 0; stroke-linejoin: miter; stroke-miterlimit: 4; is-custom-font: none; font-file-url: none; fill: rgb(243,178,41); fill-rule: evenodd; opacity: 1;" points="-0.0018,-2.0639 0.5391,-0.529 2.1732,-0.4841 0.8713,0.5096 1.3429,2.0639 -0.0126,1.1294 -1.3498,2.0593 -0.8726,0.4922 -2.1732,-0.4975 -0.5365,-0.5309 "/>
</g>
		<g transform="matrix(1 0 0 1 -16.1076 -19.1089)" id="Fill-233">
<polygon style="stroke: none; stroke-width: 1; stroke-dasharray: none; stroke-linecap: butt; stroke-dashoffset: 0; stroke-linejoin: miter; stroke-miterlimit: 4; is-custom-font: none; font-file-url: none; fill: rgb(243,178,41); fill-rule: evenodd; opacity: 1;" points="0.0037,-2.0639 0.5472,-0.5256 2.1773,-0.4827 0.8726,0.5075 1.3375,2.0639 -0.0059,1.1307 -1.3463,2.0633 -0.872,0.5035 -2.1773,-0.4907 -0.5371,-0.5256 "/>
</g>
		<g transform="matrix(1 0 0 1 -22.5554 -19.1089)" id="Fill-235">
<polygon style="stroke: none; stroke-width: 1; stroke-dasharray: none; stroke-linecap: butt; stroke-dashoffset: 0; stroke-linejoin: miter; stroke-miterlimit: 4; is-custom-font: none; font-file-url: none; fill: rgb(243,178,41); fill-rule: evenodd; opacity: 1;" points="0.0038,-2.0639 0.5472,-0.5256 2.1773,-0.4827 0.8726,0.5075 1.3375,2.0639 -0.0058,1.1307 -1.3463,2.0633 -0.872,0.5035 -2.1773,-0.4907 -0.5371,-0.5256 "/>
</g>
		<g transform="matrix(1 0 0 1 -29.0031 -19.1089)" id="Fill-237">
<polygon style="stroke: none; stroke-width: 1; stroke-dasharray: none; stroke-linecap: butt; stroke-dashoffset: 0; stroke-linejoin: miter; stroke-miterlimit: 4; is-custom-font: none; font-file-url: none; fill: rgb(243,178,41); fill-rule: evenodd; opacity: 1;" points="0.0092,-2.0639 0.5452,-0.5189 2.18,-0.476 0.876,0.5075 1.3355,2.0639 -0.0017,1.136 -1.3465,2.0579 -0.8672,0.5022 -2.18,-0.4927 -0.5385,-0.5189 "/>
</g>
		<g transform="matrix(1 0 0 1 -3.212 -19.1089)" id="Fill-239">
<polygon style="stroke: none; stroke-width: 1; stroke-dasharray: none; stroke-linecap: butt; stroke-dashoffset: 0; stroke-linejoin: miter; stroke-miterlimit: 4; is-custom-font: none; font-file-url: none; fill: rgb(243,178,41); fill-rule: evenodd; opacity: 1;" points="0.0034,-2.0639 0.5476,-0.5256 2.177,-0.4834 0.8729,0.5075 1.3366,2.0639 -0.0061,1.1307 -1.346,2.0633 -0.8702,0.5035 -2.177,-0.4907 -0.5361,-0.5256 "/>
</g>
		<g transform="matrix(1 0 0 1 3.2358 -19.1089)" id="Fill-241">
<polygon style="stroke: none; stroke-width: 1; stroke-dasharray: none; stroke-linecap: butt; stroke-dashoffset: 0; stroke-linejoin: miter; stroke-miterlimit: 4; is-custom-font: none; font-file-url: none; fill: rgb(243,178,41); fill-rule: evenodd; opacity: 1;" points="0.0034,-2.0639 0.5476,-0.5256 2.177,-0.4834 0.873,0.5075 1.3366,2.0639 -0.0061,1.1307 -1.346,2.0633 -0.8702,0.5035 -2.177,-0.4907 -0.5361,-0.5256 "/>
</g>
		<g transform="matrix(1 0 0 1 16.1312 -19.1185)" id="Fill-243">
<polygon style="stroke: none; stroke-width: 1; stroke-dasharray: none; stroke-linecap: butt; stroke-dashoffset: 0; stroke-linejoin: miter; stroke-miterlimit: 4; is-custom-font: none; font-file-url: none; fill: rgb(243,178,41); fill-rule: evenodd; opacity: 1;" points="0.0017,-2.0639 -0.5392,-0.5289 -2.1732,-0.4841 -0.8713,0.5096 -1.3429,2.0639 0.0125,1.1293 1.3498,2.0592 0.8726,0.4921 2.1732,-0.4975 0.5365,-0.5309 "/>
</g>
		<g transform="matrix(1 0 0 1 22.579 -19.1185)" id="Fill-245">
<polygon style="stroke: none; stroke-width: 1; stroke-dasharray: none; stroke-linecap: butt; stroke-dashoffset: 0; stroke-linejoin: miter; stroke-miterlimit: 4; is-custom-font: none; font-file-url: none; fill: rgb(243,178,41); fill-rule: evenodd; opacity: 1;" points="-0.0038,-2.0639 -0.5472,-0.5256 -2.1773,-0.4827 -0.8727,0.5075 -1.3375,2.0639 0.0058,1.1306 1.3463,2.0633 0.8719,0.5035 2.1773,-0.4908 0.5371,-0.5256 "/>
</g>
		<g transform="matrix(1 0 0 1 29.0268 -19.1185)" id="Fill-247">
<polygon style="stroke: none; stroke-width: 1; stroke-dasharray: none; stroke-linecap: butt; stroke-dashoffset: 0; stroke-linejoin: miter; stroke-miterlimit: 4; is-custom-font: none; font-file-url: none; fill: rgb(243,178,41); fill-rule: evenodd; opacity: 1;" points="-0.0092,-2.0639 -0.5452,-0.5189 -2.1801,-0.476 -0.876,0.5075 -1.3355,2.0639 0.0018,1.1359 1.3464,2.0579 0.8672,0.5022 2.1801,-0.4928 0.5385,-0.5189 "/>
</g>
		<g transform="matrix(1 0 0 1 9.6835 -19.1185)" id="Fill-249">
<polygon style="stroke: none; stroke-width: 1; stroke-dasharray: none; stroke-linecap: butt; stroke-dashoffset: 0; stroke-linejoin: miter; stroke-miterlimit: 4; is-custom-font: none; font-file-url: none; fill: rgb(243,178,41); fill-rule: evenodd; opacity: 1;" points="-0.0034,-2.0639 -0.5476,-0.5256 -2.177,-0.4834 -0.873,0.5075 -1.3366,2.0639 0.006,1.1306 1.346,2.0633 0.8702,0.5035 2.177,-0.4908 0.536,-0.5256 "/>
</g>
</g>
</g>
</svg>